<?xml version="1.0" encoding="utf-8"?>
<!-- Generator: Adobe Illustrator 22.0.1, SVG Export Plug-In . SVG Version: 6.00 Build 0)  -->
<svg version="1.1" id="Calque_1" xmlns="http://www.w3.org/2000/svg" xmlns:xlink="http://www.w3.org/1999/xlink" x="0px" y="0px"
	 viewBox="0 0 200 200" style="enable-background:new 0 0 200 200;" xml:space="preserve">
<style type="text/css">
	.st0{fill-rule:evenodd;clip-rule:evenodd;fill:#DA4817;}
	.st1{fill-rule:evenodd;clip-rule:evenodd;fill:#6A6864;}
</style>
<g>
	<path class="st0" d="M51.7,106.9c0,1.9,0.5,3.4,1.5,4.6c1,1.2,2.3,1.8,3.9,1.8c1.7,0,3-0.6,4.1-1.7c1-1.2,1.6-2.7,1.6-4.6
		c0-1.8-0.5-3.4-1.6-4.6c-1-1.2-2.4-1.8-4-1.8c-1.6,0-2.9,0.6-3.9,1.8C52.2,103.6,51.7,105.1,51.7,106.9z M62.4,97.1H67v19.6h-4.6
		v-2.1c-1.9,1.7-3.9,2.6-6,2.6c-2.7,0-5-1-6.7-2.9c-1.8-2-2.6-4.5-2.6-7.5c0-2.9,0.9-5.4,2.6-7.4c1.8-2,4-2.9,6.6-2.9
		c2.3,0,4.3,0.9,6.1,2.8V97.1z"/>
	<path class="st0" d="M86.7,98v6c-1-1.3-2-2.1-2.8-2.6c-0.8-0.5-1.8-0.7-2.8-0.7c-1.7,0-3.1,0.6-4.3,1.8c-1.1,1.2-1.7,2.7-1.7,4.5
		c0,1.8,0.5,3.4,1.6,4.5c1.1,1.2,2.5,1.8,4.2,1.8c1.1,0,2-0.2,2.9-0.7c0.8-0.5,1.8-1.3,2.8-2.7v6c-1.8,1-3.7,1.4-5.5,1.4
		c-3,0-5.6-1-7.6-2.9c-2-2-3.1-4.4-3.1-7.4c0-2.9,1-5.4,3.1-7.4c2.1-2,4.6-3,7.6-3C83.2,96.6,85,97,86.7,98z"/>
	<polygon class="st0" points="94.8,82.7 94.8,103.5 101.2,97.1 107.3,97.1 98.8,105.3 107.9,116.7 102,116.7 95.5,108.5 94.8,109.2 
		94.8,116.7 90.3,116.7 90.3,82.7 	"/>
	<path class="st1" d="M116.1,112.3h2.9c2.1,0,3.7-0.4,4.7-1.2c1-0.9,1.6-2,1.6-3.4c0-1.3-0.5-2.5-1.5-3.4c-1-0.9-2.7-1.3-5.3-1.3
		h-2.4V112.3z M116.1,99h1.5c1.7,0,3-0.4,3.8-1.2c0.8-0.8,1.2-1.9,1.2-3.4c0-1.5-0.4-2.6-1.2-3.3c-0.8-0.8-2-1.1-3.6-1.1h-1.7V99z
		 M111.5,116.7V85.6h4.7c2.1,0,3.7,0.2,5,0.5c1.3,0.3,2.3,0.9,3.2,1.6c0.9,0.8,1.6,1.8,2.1,3c0.5,1.2,0.8,2.4,0.8,3.6
		c0,2.2-0.9,4.1-2.6,5.7c1.7,0.6,3,1.6,3.9,3c1,1.4,1.5,3,1.5,4.9c0,2.4-0.9,4.5-2.6,6.2c-1,1-2.2,1.8-3.5,2.2
		c-1.4,0.4-3.2,0.6-5.3,0.6H111.5z"/>
	<path class="st1" d="M170.1,104.3c-0.6-2.4-2.2-3.6-4.6-3.6c-0.6,0-1.1,0.1-1.6,0.3c-0.5,0.2-0.9,0.4-1.3,0.7
		c-0.4,0.3-0.7,0.7-1,1.1c-0.3,0.4-0.5,0.9-0.6,1.5H170.1z M174.8,108h-14.1c0.1,1.6,0.6,2.9,1.6,3.8c0.9,0.9,2.1,1.4,3.6,1.4
		c1.1,0,2.1-0.3,2.8-0.8c0.7-0.5,1.6-1.5,2.5-3l3.8,2.1c-0.6,1-1.2,1.9-1.9,2.6c-0.7,0.7-1.4,1.3-2.1,1.8c-0.8,0.5-1.6,0.8-2.4,1
		c-0.9,0.2-1.8,0.3-2.8,0.3c-2.9,0-5.3-0.9-7.1-2.8c-1.8-1.9-2.7-4.4-2.7-7.5c0-3.1,0.9-5.6,2.6-7.5c1.7-1.9,4-2.8,6.9-2.8
		c2.9,0,5.2,0.9,6.9,2.8c1.7,1.8,2.5,4.4,2.5,7.6L174.8,108z"/>
	<path class="st1" d="M147.6,104.3c-0.6-2.4-2.2-3.6-4.6-3.6c-0.6,0-1.1,0.1-1.6,0.3c-0.5,0.2-0.9,0.4-1.3,0.7
		c-0.4,0.3-0.7,0.7-1,1.1c-0.3,0.4-0.5,0.9-0.6,1.5H147.6z M152.3,108h-14.1c0.1,1.6,0.6,2.9,1.6,3.8c0.9,0.9,2.1,1.4,3.6,1.4
		c1.1,0,2.1-0.3,2.8-0.8c0.7-0.5,1.6-1.5,2.5-3l3.8,2.1c-0.6,1-1.2,1.9-1.9,2.6c-0.7,0.7-1.4,1.3-2.1,1.8c-0.8,0.5-1.6,0.8-2.4,1
		c-0.9,0.2-1.8,0.3-2.8,0.3c-2.9,0-5.3-0.9-7.1-2.8c-1.8-1.9-2.7-4.4-2.7-7.5c0-3.1,0.9-5.6,2.6-7.5c1.7-1.9,4-2.8,6.9-2.8
		c2.9,0,5.2,0.9,6.9,2.8c1.7,1.8,2.5,4.4,2.5,7.6L152.3,108z"/>
	<path class="st0" d="M29.7,112.3h2.9c2.1,0,3.7-0.4,4.7-1.2c1-0.9,1.6-2,1.6-3.4c0-1.3-0.5-2.5-1.5-3.4c-1-0.9-2.7-1.3-5.3-1.3
		h-2.4V112.3z M29.7,99h1.5c1.7,0,3-0.4,3.8-1.2c0.8-0.8,1.2-1.9,1.2-3.4c0-1.5-0.4-2.6-1.3-3.3c-0.8-0.8-2-1.1-3.6-1.1h-1.7V99z
		 M25,116.7V85.6h4.7c2.1,0,3.7,0.2,5,0.5c1.2,0.3,2.3,0.9,3.2,1.6c0.9,0.8,1.6,1.8,2.1,3c0.5,1.2,0.8,2.4,0.8,3.6
		c0,2.2-0.9,4.1-2.6,5.7c1.7,0.6,3,1.6,3.9,3c1,1.4,1.5,3,1.5,4.9c0,2.4-0.9,4.5-2.6,6.2c-1,1-2.2,1.8-3.5,2.2
		c-1.4,0.4-3.2,0.6-5.3,0.6H25z"/>
</g>
<g>
</g>
<g>
</g>
<g>
</g>
<g>
</g>
<g>
</g>
<g>
</g>
<g>
</g>
<g>
</g>
<g>
</g>
<g>
</g>
<g>
</g>
<g>
</g>
<g>
</g>
<g>
</g>
<g>
</g>
</svg>
