<?xml version="1.0" encoding="utf-8"?>
<!-- Generator: Adobe Illustrator 22.0.1, SVG Export Plug-In . SVG Version: 6.00 Build 0)  -->
<svg version="1.1" id="Calque_1" xmlns="http://www.w3.org/2000/svg" xmlns:xlink="http://www.w3.org/1999/xlink" x="0px" y="0px"
	 viewBox="0 0 200 200" style="enable-background:new 0 0 200 200;" xml:space="preserve">
<style type="text/css">
	.st0{fill:#7F7F7F;}
</style>
<path class="st0" d="M140,174.5H60c-2.5,0-4.5-2-4.5-4.5V68c0-2.5,2-4.5,4.5-4.5H140c2.5,0,4.5,2,4.5,4.5V170
	C144.5,172.5,142.5,174.5,140,174.5z M60,66.5c-0.8,0-1.5,0.7-1.5,1.5V170c0,0.8,0.7,1.5,1.5,1.5H140c0.8,0,1.5-0.7,1.5-1.5V68
	c0-0.8-0.7-1.5-1.5-1.5H60z"/>
<path class="st0" d="M110,86H69.8c-0.8,0-1.5-0.7-1.5-1.5S69,83,69.8,83H110c0.8,0,1.5,0.7,1.5,1.5S110.9,86,110,86z"/>
<path class="st0" d="M110,136.8H69.8c-0.8,0-1.5-0.7-1.5-1.5s0.7-1.5,1.5-1.5H110c0.8,0,1.5,0.7,1.5,1.5S110.9,136.8,110,136.8z"/>
<path class="st0" d="M110,143.4H69.8c-0.8,0-1.5-0.7-1.5-1.5s0.7-1.5,1.5-1.5H110c0.8,0,1.5,0.7,1.5,1.5S110.9,143.4,110,143.4z"/>
<path class="st0" d="M104.9,150H69.8c-0.8,0-1.5-0.7-1.5-1.5s0.7-1.5,1.5-1.5h35.1c0.8,0,1.5,0.7,1.5,1.5S105.7,150,104.9,150z"/>
<path class="st0" d="M131.1,150h-11.3c-1.9,0-3.4-1.5-3.4-3.4V85.9c0-1.9,1.5-3.4,3.4-3.4h11.3c1.9,0,3.4,1.5,3.4,3.4v60.8
	C134.5,148.5,133,150,131.1,150z M119.9,85.5c-0.2,0-0.4,0.2-0.4,0.4v60.8c0,0.2,0.2,0.4,0.4,0.4h11.3c0.2,0,0.4-0.2,0.4-0.4V85.9
	c0-0.2-0.2-0.4-0.4-0.4H119.9z"/>
<g>
	<path class="st0" d="M108.1,130H71.6c-2.4,0-4.4-2-4.4-4.4V94.5c0-2.4,2-4.4,4.4-4.4h36.5c2.4,0,4.4,2,4.4,4.4v31.1
		C112.5,128,110.5,130,108.1,130z M71.6,93.2c-0.8,0-1.4,0.6-1.4,1.4v31.1c0,0.8,0.6,1.4,1.4,1.4h36.5c0.8,0,1.4-0.6,1.4-1.4V94.5
		c0-0.8-0.6-1.4-1.4-1.4H71.6z"/>
	<path class="st0" d="M81.3,107c-3.1,0-5.6-2.5-5.6-5.6s2.5-5.6,5.6-5.6s5.6,2.5,5.6,5.6S84.3,107,81.3,107z M81.3,98.9
		c-1.4,0-2.6,1.1-2.6,2.6s1.1,2.6,2.6,2.6s2.6-1.1,2.6-2.6S82.7,98.9,81.3,98.9z"/>
	<path class="st0" d="M105.5,125H76.1c-0.7,0-1.4-0.4-1.8-1.1s-0.3-1.4,0.1-2.1l0,0l8.5-12c0.3-0.5,0.9-0.8,1.5-0.8
		c0.6-0.1,1.2,0.2,1.6,0.6l3,3l4.8-7.2c0.4-0.6,1-0.9,1.7-0.9c0.7,0,1.3,0.4,1.7,1l10.1,16.5c0.4,0.6,0.4,1.4,0,2
		C106.8,124.6,106.2,125,105.5,125z M76.9,123.6L76.9,123.6L76.9,123.6z M104.6,123.5C104.6,123.5,104.6,123.5,104.6,123.5
		L104.6,123.5z M78.1,122h25.6l-8.3-13.6l-4.6,6.9c-0.3,0.5-0.9,0.8-1.5,0.9c-0.6,0.1-1.2-0.2-1.6-0.6l-3-3L78.1,122z M85.4,111.6
		L85.4,111.6C85.4,111.6,85.4,111.6,85.4,111.6z"/>
</g>
</svg>
