<?xml version="1.0" encoding="utf-8"?>
<!-- Generator: Adobe Illustrator 22.0.1, SVG Export Plug-In . SVG Version: 6.00 Build 0)  -->
<svg version="1.1" id="Calque_1" xmlns="http://www.w3.org/2000/svg" xmlns:xlink="http://www.w3.org/1999/xlink" x="0px" y="0px"
	 viewBox="0 0 200 200" style="enable-background:new 0 0 200 200;" xml:space="preserve">
<style type="text/css">
	.st0{fill:#7F7F7F;}
</style>
<path class="st0" d="M140,174.5H60c-2.5,0-4.5-2-4.5-4.5V68c0-2.5,2-4.5,4.5-4.5H140c2.5,0,4.5,2,4.5,4.5V170
	C144.5,172.5,142.5,174.5,140,174.5z M60,66.5c-0.8,0-1.5,0.7-1.5,1.5V170c0,0.8,0.7,1.5,1.5,1.5H140c0.8,0,1.5-0.7,1.5-1.5V68
	c0-0.8-0.7-1.5-1.5-1.5H60z"/>
<g id="Photo_x40_2x.png_1_">
	<g>
		<path class="st0" d="M121.7,129.9L108,106.6l0,0c-0.2-0.4-0.6-0.6-1.1-0.6c-0.6,0-1.1,0.3-1.3,0.8l-7.2,10.7l-5.7-5.7
			c-0.2-0.2-0.6-0.4-1-0.4c-0.6,0-1.1,0.4-1.3,0.9l0,0l-12,17.4c-0.1,0.1-0.3,0.3-0.3,0.5l0,0l0,0c-0.1,0.2-0.1,0.3-0.1,0.5
			c0,0.8,0.6,1.4,1.4,1.4h41.2c0.8,0,1.4-0.6,1.4-1.4C121.9,130.4,121.8,130.1,121.7,129.9L121.7,129.9z M82,129.3l9.9-14.4l5.7,5.7
			c0.2,0.2,0.6,0.4,1,0.4c0.4,0,0.7-0.2,1-0.4l0,0c0.1-0.1,0.2-0.3,0.3-0.4l6.9-10.3l11.4,19.4H82z M86.2,106.9
			c3.8,0,6.9-3.1,6.9-6.9c0-3.8-3.1-6.9-6.9-6.9s-6.9,3.1-6.9,6.9C79.3,103.8,82.4,106.9,86.2,106.9z M86.2,95.9
			c2.3,0,4.1,1.8,4.1,4.1c0,2.3-1.8,4.1-4.1,4.1c-2.3,0-4.1-1.8-4.1-4.1C82.1,97.7,83.9,95.9,86.2,95.9z M124.7,84.9H75.3
			c-3,0-5.5,2.5-5.5,5.5v43.1c0,3,2.5,5.5,5.5,5.5h49.4c3,0,5.5-2.5,5.5-5.5V90.4C130.2,87.4,127.7,84.9,124.7,84.9z M127.4,133.5
			c0,1.5-1.2,2.7-2.7,2.7H75.3c-1.5,0-2.7-1.2-2.7-2.7V90.4c0-1.5,1.2-2.7,2.7-2.7h49.4c1.5,0,2.7,1.2,2.7,2.7V133.5z"/>
	</g>
</g>
<path class="st0" d="M127.5,79h-55c-0.8,0-1.5-0.7-1.5-1.5s0.7-1.5,1.5-1.5h55c0.8,0,1.5,0.7,1.5,1.5S128.3,79,127.5,79z"/>
<path class="st0" d="M127.5,147h-55c-0.8,0-1.5-0.7-1.5-1.5s0.7-1.5,1.5-1.5h55c0.8,0,1.5,0.7,1.5,1.5S128.3,147,127.5,147z"/>
<path class="st0" d="M127.5,155h-55c-0.8,0-1.5-0.7-1.5-1.5s0.7-1.5,1.5-1.5h55c0.8,0,1.5,0.7,1.5,1.5S128.3,155,127.5,155z"/>
<path class="st0" d="M120.5,163h-48c-0.8,0-1.5-0.7-1.5-1.5s0.7-1.5,1.5-1.5h48c0.8,0,1.5,0.7,1.5,1.5S121.3,163,120.5,163z"/>
</svg>
