<?xml version="1.0" encoding="utf-8"?>
<!-- Generator: Adobe Illustrator 22.0.1, SVG Export Plug-In . SVG Version: 6.00 Build 0)  -->
<svg version="1.1" id="Calque_1" xmlns="http://www.w3.org/2000/svg" xmlns:xlink="http://www.w3.org/1999/xlink" x="0px" y="0px"
	 viewBox="0 0 200 200" style="enable-background:new 0 0 200 200;" xml:space="preserve">
<style type="text/css">
	.st0{fill:#7F7F7F;}
</style>
<path class="st0" d="M140,174.5H60c-2.5,0-4.5-2-4.5-4.5V68c0-2.5,2-4.5,4.5-4.5H140c2.5,0,4.5,2,4.5,4.5V170
	C144.5,172.5,142.5,174.5,140,174.5z M60,66.5c-0.8,0-1.5,0.7-1.5,1.5V170c0,0.8,0.7,1.5,1.5,1.5H140c0.8,0,1.5-0.7,1.5-1.5V68
	c0-0.8-0.7-1.5-1.5-1.5H60z"/>
<g>
	<path class="st0" d="M81.7,110H70.9c-0.8,0-1.5-0.7-1.5-1.5s0.7-1.5,1.5-1.5h10.8c0.8,0,1.5,0.7,1.5,1.5S82.6,110,81.7,110z"/>
	<path class="st0" d="M81.7,142H70.9c-0.8,0-1.5-0.7-1.5-1.5s0.7-1.5,1.5-1.5h10.8c0.8,0,1.5,0.7,1.5,1.5S82.6,142,81.7,142z"/>
	<path class="st0" d="M81.7,135H70.9c-0.8,0-1.5-0.7-1.5-1.5s0.7-1.5,1.5-1.5h10.8c0.8,0,1.5,0.7,1.5,1.5S82.6,135,81.7,135z"/>
	<path class="st0" d="M81.7,149H70.9c-0.8,0-1.5-0.7-1.5-1.5s0.7-1.5,1.5-1.5h10.8c0.8,0,1.5,0.7,1.5,1.5S82.6,149,81.7,149z"/>
	<path class="st0" d="M81.3,128h-10c-1.2,0-2.2-1-2.2-2.2v-9.7c0-1.2,1-2.2,2.2-2.2h10c1.2,0,2.2,1,2.2,2.2v9.7
		C83.5,127,82.5,128,81.3,128z M72.2,125h8.3v-8h-8.3V125z"/>
</g>
<g>
	<path class="st0" d="M98.7,110H87.9c-0.8,0-1.5-0.7-1.5-1.5s0.7-1.5,1.5-1.5h10.8c0.8,0,1.5,0.7,1.5,1.5S99.6,110,98.7,110z"/>
	<path class="st0" d="M98.7,142H87.9c-0.8,0-1.5-0.7-1.5-1.5s0.7-1.5,1.5-1.5h10.8c0.8,0,1.5,0.7,1.5,1.5S99.6,142,98.7,142z"/>
	<path class="st0" d="M98.7,135H87.9c-0.8,0-1.5-0.7-1.5-1.5s0.7-1.5,1.5-1.5h10.8c0.8,0,1.5,0.7,1.5,1.5S99.6,135,98.7,135z"/>
	<path class="st0" d="M98.7,149H87.9c-0.8,0-1.5-0.7-1.5-1.5s0.7-1.5,1.5-1.5h10.8c0.8,0,1.5,0.7,1.5,1.5S99.6,149,98.7,149z"/>
	<path class="st0" d="M98.3,128h-10c-1.2,0-2.2-1-2.2-2.2v-9.7c0-1.2,1-2.2,2.2-2.2h10c1.2,0,2.2,1,2.2,2.2v9.7
		C100.5,127,99.5,128,98.3,128z M89.2,125h8.3v-8h-8.3V125z"/>
</g>
<g>
	<path class="st0" d="M115.7,110h-10.8c-0.8,0-1.5-0.7-1.5-1.5s0.7-1.5,1.5-1.5h10.8c0.8,0,1.5,0.7,1.5,1.5S116.6,110,115.7,110z"/>
	<path class="st0" d="M115.7,142h-10.8c-0.8,0-1.5-0.7-1.5-1.5s0.7-1.5,1.5-1.5h10.8c0.8,0,1.5,0.7,1.5,1.5S116.6,142,115.7,142z"/>
	<path class="st0" d="M115.7,135h-10.8c-0.8,0-1.5-0.7-1.5-1.5s0.7-1.5,1.5-1.5h10.8c0.8,0,1.5,0.7,1.5,1.5S116.6,135,115.7,135z"/>
	<path class="st0" d="M115.7,149h-10.8c-0.8,0-1.5-0.7-1.5-1.5s0.7-1.5,1.5-1.5h10.8c0.8,0,1.5,0.7,1.5,1.5S116.6,149,115.7,149z"/>
	<path class="st0" d="M115.3,128h-10c-1.2,0-2.2-1-2.2-2.2v-9.7c0-1.2,1-2.2,2.2-2.2h10c1.2,0,2.2,1,2.2,2.2v9.7
		C117.5,127,116.5,128,115.3,128z M106.2,125h8.3v-8h-8.3V125z"/>
</g>
<g>
	<path class="st0" d="M132.7,110h-10.8c-0.8,0-1.5-0.7-1.5-1.5s0.7-1.5,1.5-1.5h10.8c0.8,0,1.5,0.7,1.5,1.5S133.6,110,132.7,110z"/>
	<path class="st0" d="M132.7,142h-10.8c-0.8,0-1.5-0.7-1.5-1.5s0.7-1.5,1.5-1.5h10.8c0.8,0,1.5,0.7,1.5,1.5S133.6,142,132.7,142z"/>
	<path class="st0" d="M132.7,135h-10.8c-0.8,0-1.5-0.7-1.5-1.5s0.7-1.5,1.5-1.5h10.8c0.8,0,1.5,0.7,1.5,1.5S133.6,135,132.7,135z"/>
	<path class="st0" d="M132.7,149h-10.8c-0.8,0-1.5-0.7-1.5-1.5s0.7-1.5,1.5-1.5h10.8c0.8,0,1.5,0.7,1.5,1.5S133.6,149,132.7,149z"/>
	<path class="st0" d="M132.3,128h-10c-1.2,0-2.2-1-2.2-2.2v-9.7c0-1.2,1-2.2,2.2-2.2h10c1.2,0,2.2,1,2.2,2.2v9.7
		C134.5,127,133.5,128,132.3,128z M123.2,125h8.3v-8h-8.3V125z"/>
</g>
<path class="st0" d="M127.5,99h-51c-0.8,0-1.5-0.7-1.5-1.5s0.7-1.5,1.5-1.5h51c0.8,0,1.5,0.7,1.5,1.5S128.3,99,127.5,99z"/>
<path class="st0" d="M132.5,92h-61c-0.8,0-1.5-0.7-1.5-1.5s0.7-1.5,1.5-1.5h61c0.8,0,1.5,0.7,1.5,1.5S133.3,92,132.5,92z"/>
</svg>
