<?xml version="1.0" encoding="utf-8"?>
<!-- Generator: Adobe Illustrator 22.0.1, SVG Export Plug-In . SVG Version: 6.00 Build 0)  -->
<svg version="1.1" id="Calque_1" xmlns="http://www.w3.org/2000/svg" xmlns:xlink="http://www.w3.org/1999/xlink" x="0px" y="0px"
	 viewBox="0 0 200 200" style="enable-background:new 0 0 200 200;" xml:space="preserve">
<style type="text/css">
	.st0{fill:#7F7F7F;}
</style>
<path class="st0" d="M140,174.5H60c-2.5,0-4.5-2-4.5-4.5V68c0-2.5,2-4.5,4.5-4.5H140c2.5,0,4.5,2,4.5,4.5V170
	C144.5,172.5,142.5,174.5,140,174.5z M60,66.5c-0.8,0-1.5,0.7-1.5,1.5V170c0,0.8,0.7,1.5,1.5,1.5H140c0.8,0,1.5-0.7,1.5-1.5V68
	c0-0.8-0.7-1.5-1.5-1.5H60z"/>
<path class="st0" d="M127.5,86h-55c-0.8,0-1.5-0.7-1.5-1.5s0.7-1.5,1.5-1.5h55c0.8,0,1.5,0.7,1.5,1.5S128.3,86,127.5,86z"/>
<path class="st0" d="M127,106H72.5c-0.8,0-1.5-0.7-1.5-1.5V93c0-0.8,0.7-1.5,1.5-1.5H127c0.8,0,1.5,0.7,1.5,1.5v11.5
	C128.5,105.3,127.8,106,127,106z M74,103h51.5v-8.5H74V103z"/>
<path class="st0" d="M127,124H72.5c-0.8,0-1.5-0.7-1.5-1.5V111c0-0.8,0.7-1.5,1.5-1.5H127c0.8,0,1.5,0.7,1.5,1.5v11.5
	C128.5,123.3,127.8,124,127,124z M74,121h51.5v-8.5H74V121z"/>
<path class="st0" d="M127,142H72.5c-0.8,0-1.5-0.7-1.5-1.5V129c0-0.8,0.7-1.5,1.5-1.5H127c0.8,0,1.5,0.7,1.5,1.5v11.5
	C128.5,141.3,127.8,142,127,142z M74,139h51.5v-8.5H74V139z"/>
<rect x="89" y="147" class="st0" width="25" height="10"/>
</svg>
