<?xml version="1.0" encoding="utf-8"?>
<!-- Generator: Adobe Illustrator 22.0.1, SVG Export Plug-In . SVG Version: 6.00 Build 0)  -->
<svg version="1.1" id="Calque_1" xmlns="http://www.w3.org/2000/svg" xmlns:xlink="http://www.w3.org/1999/xlink" x="0px" y="0px"
	 viewBox="0 0 200 200" style="enable-background:new 0 0 200 200;" xml:space="preserve">
<style type="text/css">
	.st0{fill:#7F7F7F;}
</style>
<path class="st0" d="M140,174.5H60c-2.5,0-4.5-2-4.5-4.5V68c0-2.5,2-4.5,4.5-4.5H140c2.5,0,4.5,2,4.5,4.5V170
	C144.5,172.5,142.5,174.5,140,174.5z M60,66.5c-0.8,0-1.5,0.7-1.5,1.5V170c0,0.8,0.7,1.5,1.5,1.5H140c0.8,0,1.5-0.7,1.5-1.5V68
	c0-0.8-0.7-1.5-1.5-1.5H60z"/>
</svg>
