<?xml version="1.0" encoding="utf-8"?>
<!-- Generator: Adobe Illustrator 22.0.1, SVG Export Plug-In . SVG Version: 6.00 Build 0)  -->
<svg version="1.1" id="Calque_1" xmlns="http://www.w3.org/2000/svg" xmlns:xlink="http://www.w3.org/1999/xlink" x="0px" y="0px"
	 viewBox="0 0 200 200" style="enable-background:new 0 0 200 200;" xml:space="preserve">
<style type="text/css">
	.st0{fill:#7F7F7F;}
</style>
<path class="st0" d="M140,174.5H60c-2.5,0-4.5-2-4.5-4.5V68c0-2.5,2-4.5,4.5-4.5H140c2.5,0,4.5,2,4.5,4.5V170
	C144.5,172.5,142.5,174.5,140,174.5z M60,66.5c-0.8,0-1.5,0.7-1.5,1.5V170c0,0.8,0.7,1.5,1.5,1.5H140c0.8,0,1.5-0.7,1.5-1.5V68
	c0-0.8-0.7-1.5-1.5-1.5H60z"/>
<g>
	<path class="st0" d="M104.6,131.5H72.4c-1.9,0-3.4-1.5-3.4-3.4v-24.6c0-1.9,1.5-3.4,3.4-3.4h32.3c1.9,0,3.4,1.5,3.4,3.4v24.6
		C108,130,106.5,131.5,104.6,131.5z M72.4,102.2c-0.7,0-1.3,0.6-1.3,1.3v24.6c0,0.7,0.6,1.3,1.3,1.3h32.3c0.7,0,1.3-0.6,1.3-1.3
		v-24.6c0-0.7-0.6-1.3-1.3-1.3H72.4z"/>
	<path class="st0" d="M80.3,112.6c-2.5,0-4.5-2-4.5-4.5s2-4.5,4.5-4.5s4.5,2,4.5,4.5S82.8,112.6,80.3,112.6z M80.3,105.7
		c-1.3,0-2.4,1.1-2.4,2.4c0,1.3,1.1,2.4,2.4,2.4c1.3,0,2.4-1.1,2.4-2.4C82.8,106.8,81.7,105.7,80.3,105.7z"/>
	<path class="st0" d="M101.2,126H77.7c-0.5,0-1-0.3-1.2-0.8c-0.2-0.5-0.2-1,0.1-1.5l6.8-9.6c0.2-0.3,0.6-0.6,1-0.6
		c0.4,0,0.8,0.1,1.1,0.4l2.6,2.6l4-6c0.3-0.4,0.7-0.6,1.2-0.6c0.5,0,0.9,0.3,1.2,0.7l8.1,13.3c0.3,0.4,0.3,1,0,1.4
		C102.2,125.7,101.7,126,101.2,126z M78.2,125L78.2,125C78.2,125,78.2,125,78.2,125z M78.9,124h21.3l-7-11.5l-3.9,5.8
		c-0.2,0.3-0.6,0.6-1,0.6c-0.4,0-0.8-0.1-1.1-0.4l-2.6-2.6L78.9,124z M87.6,117.2C87.6,117.2,87.6,117.2,87.6,117.2L87.6,117.2z"/>
</g>
<path class="st0" d="M85,97.2H71c-1.1,0-2-0.9-2-2v-10c0-1.1,0.9-2,2-2H85c1.1,0,2,0.9,2,2v10C87,96.3,86.1,97.2,85,97.2z M71,85.2
	l0,10l14,0l0-10L71,85.2z"/>
<path class="st0" d="M106,97.2H92c-1.1,0-2-0.9-2-2v-10c0-1.1,0.9-2,2-2H106c1.1,0,2,0.9,2,2v10C108,96.3,107.1,97.2,106,97.2z
	 M92,85.2l0,10l14,0l0-10L92,85.2z"/>
<path class="st0" d="M127,97.2H113c-1.1,0-2-0.9-2-2v-10c0-1.1,0.9-2,2-2H127c1.1,0,2,0.9,2,2v10C129,96.3,128.1,97.2,127,97.2z
	 M113,85.2l0,10l14,0l0-10L113,85.2z"/>
<path class="st0" d="M127,114.2H113c-1.1,0-2-0.9-2-2v-10c0-1.1,0.9-2,2-2H127c1.1,0,2,0.9,2,2v10C129,113.3,128.1,114.2,127,114.2z
	 M113,102.2l0,10l14,0l0-10L113,102.2z"/>
<path class="st0" d="M127,131.2h-13.9c-1.1,0-2-0.9-2-2v-10c0-1.1,0.9-2,2-2H127c1.1,0,2,0.9,2,2v10
	C129,130.3,128.1,131.2,127,131.2z M113.1,119.2l0,10l14,0l0-10L113.1,119.2z"/>
<path class="st0" d="M94.9,156.7H71.7c-1.5,0-2.7-1.2-2.7-2.7v-16.6c0-1.5,1.2-2.7,2.7-2.7h23.2c1.5,0,2.7,1.2,2.7,2.7v16.6
	C97.6,155.5,96.4,156.7,94.9,156.7z M71.7,136.7c-0.4,0-0.7,0.3-0.7,0.7v16.6c0,0.4,0.3,0.7,0.7,0.7h23.2c0.4,0,0.7-0.3,0.7-0.7
	v-16.6c0-0.4-0.3-0.7-0.7-0.7H71.7z"/>
<path class="st0" d="M126.4,156.7h-23.2c-1.5,0-2.7-1.2-2.7-2.7v-16.6c0-1.5,1.2-2.7,2.7-2.7h23.2c1.5,0,2.7,1.2,2.7,2.7v16.6
	C129,155.5,127.8,156.7,126.4,156.7z M103.1,136.7c-0.4,0-0.7,0.3-0.7,0.7v16.6c0,0.4,0.3,0.7,0.7,0.7h23.2c0.4,0,0.7-0.3,0.7-0.7
	v-16.6c0-0.4-0.3-0.7-0.7-0.7H103.1z"/>
</svg>