<?xml version="1.0" encoding="utf-8"?>
<!-- Generator: Adobe Illustrator 22.0.1, SVG Export Plug-In . SVG Version: 6.00 Build 0)  -->
<svg version="1.1" id="Calque_1" xmlns="http://www.w3.org/2000/svg" xmlns:xlink="http://www.w3.org/1999/xlink" x="0px" y="0px"
	 viewBox="0 0 200 200" style="enable-background:new 0 0 200 200;" xml:space="preserve">
<style type="text/css">
	.st0{fill:#7F7F7F;}
</style>
<path class="st0" d="M140.5,174.5H75c-2.2,0-4-1.8-4-4V83c0-2.2,1.8-4,4-4h65.5c2.2,0,4,1.8,4,4v87.5
	C144.5,172.7,142.7,174.5,140.5,174.5z M75,82c-0.5,0-1,0.4-1,1v87.5c0,0.5,0.4,1,1,1h65.5c0.5,0,1-0.4,1-1V83c0-0.5-0.4-1-1-1H75z"
	/>
<path class="st0" d="M67.3,158H59c-2.2,0-4-1.8-4-4V67.9c0-2.2,1.8-4,4-4h65.6c2.2,0,4,1.8,4,4v6.5c0,0.8-0.7,1.5-1.5,1.5
	s-1.5-0.7-1.5-1.5v-6.5c0-0.5-0.4-1-1-1H59c-0.5,0-1,0.4-1,1V154c0,0.5,0.4,1,1,1h8.3c0.8,0,1.5,0.7,1.5,1.5S68.1,158,67.3,158z"/>
</svg>
